<svg xmlns="http://www.w3.org/2000/svg" width="500" height="500" preserveAspectRatio="none"><svg xmlns="http://www.w3.org/2000/svg" xmlns:xlink="http://www.w3.org/1999/xlink" width="417" height="283.132" x="41.5" y="108.434" preserveAspectRatio="none" viewBox="264.661 106.715 446.678 303.282"><style>.aIptOCySncolors-0f7ee595e-4cab-409f-bb61-373d9bb45745{fill:#000e6d;fill-opacity:1}.aIptOCySncolors-1f7ee595e-4cab-409f-bb61-373d9bb45745{fill:#a5aff3;fill-opacity:1}</style><defs><filter id="f7ee595e-4cab-409f-bb61-373d9bb45745bDq7-ct2F" width="446.678" height="37" x="264.661" y="372.998" color-interpolation-filters="sRGB" filterUnits="userSpaceOnUse" primitiveUnits="userSpaceOnUse"><feMerge><feMergeNode in="SourceGraphic"/></feMerge></filter></defs><svg width="259.521" height="264.282" x="358.24" y="106.715" preserveAspectRatio="none" viewBox="45.501 44.5 108.999 110.999"><path d="M154.485 79.915a1.6 1.6 0 0 1-.184.724c-26.991 52.158-63.475 64.473-64.998 64.978a1.629 1.629 0 0 1-.921.033c-22.051-5.34-41.808-28.623-42.612-30.746-.636-1.718 0-5.896.419-8.204 0-.034 0-.051.017-.084.05-.236.084-.438.117-.623v-.017a8.29 8.29 0 0 1 1.239-2.797C55.08 93.981 63.15 85.844 71.706 78.01c8.539-7.783 17.48-15.128 26.873-21.85l3.55-2.477.871-.64c.301-.202.552-.404 1.005-.674a5.868 5.868 0 0 1 2.696-.775c.921-.067 1.976.236 2.562.421l2.076.623 4.119 1.297c5.509 1.752 10.984 3.555 16.375 5.627 5.408 2.072 10.733 4.346 15.906 7.126.653.32 1.273.724 1.925 1.078l.954.556c.318.185.787.522 1.139.842a6.309 6.309 0 0 1 1.992 4.094c.82 2.631.769 5.815.736 6.657z" class="aIptOCySncolors-0f7ee595e-4cab-409f-bb61-373d9bb45745" data-color="1"/><path d="m149.257 71.694-.034-.034c-.184-.135-.268-.236-.552-.404l-.904-.539c-.151-.101-.301-.185-.452-.286-.452-.27-.887-.556-1.356-.792-4.889-2.78-10.096-5.105-15.371-7.227a234.94 234.94 0 0 0-16.107-5.795l-4.102-1.247-2.043-.606c-.787-.236-1.122-.32-1.658-.303a3.113 3.113 0 0 0-1.39.421c-.167.101-.486.337-.787.539l-.871.64-3.466 2.51C91.04 65.46 82.116 72.654 73.66 80.353a286.076 286.076 0 0 0-12.29 11.961c-1.976 2.072-3.935 4.144-5.76 6.318a79.084 79.084 0 0 0-3.265 4.262c-.586.792-1.155 1.6-1.691 2.392-.034.034-.05.084-.084.118-.435.606-.67 1.331-.67 1.954 0 .202.017.404.067.59.033.185.1.354.184.505.05.084.1.152.151.236l.318.387 1.289 1.6a57.362 57.362 0 0 0 5.86 5.913c4.203 3.706 8.824 6.975 13.629 9.923 4.822 2.948 9.795 5.677 14.935 8.036 1.574.725 1.875.809 2.545.64.151-.034.285-.101.419-.168l.804-.472 1.792-1.095c2.411-1.483 4.738-3.049 7.049-4.65 4.571-3.268 9.092-6.587 13.495-10.074 4.353-3.555 8.589-7.278 12.625-11.22 8.07-7.867 15.454-16.645 21.264-26.433.72-1.213 1.44-2.443 2.143-3.673l1.005-1.87.251-.472.167-.32c.067-.202.134-.421.167-.623a2.11 2.11 0 0 0 0-.792 2.697 2.697 0 0 0-.802-1.632zm-78.61 48.62c-1.189 1.196-3.114 1.196-4.303 0s-1.189-3.117 0-4.313a3.029 3.029 0 0 1 4.303 0 3.085 3.085 0 0 1 0 4.313zm74.776-42.808c-17.48 26.753-47.2 45.992-50.532 48.098a4.131 4.131 0 0 1-2.227.657 3.94 3.94 0 0 1-1.892-.472c-12.591-6.671-25.383-17.234-30.289-21.463a4.724 4.724 0 0 1-.586-.59 4.271 4.271 0 0 1-.753-1.516c-.05-.253-.1-.522-.117-.792a3.7 3.7 0 0 1 .067-.96 4.087 4.087 0 0 1 .971-2.072c17.614-19.761 37.924-35.614 43.717-40.011a4.08 4.08 0 0 1 3.583-.69c11.553 3.302 29.201 10.31 36.333 13.697.017.017.05.017.067.034a4.026 4.026 0 0 1 1.507 1.247c.318.404.553.876.686 1.381.017.051.034.101.034.152a4.18 4.18 0 0 1-.569 3.3z" class="aIptOCySncolors-1f7ee595e-4cab-409f-bb61-373d9bb45745" data-color="2"/><path d="M88.881 74.306c.596-.2 53.161 5.896 53.161 5.896s-2.721 4.001-5.442 5.686l-51.696-7.371c0 .001.837-3.158 3.977-4.211zM83.02 80.624l42.906 6.317-3.349 2.106-41.859-6.949 2.302-1.474z" class="aIptOCySncolors-1f7ee595e-4cab-409f-bb61-373d9bb45745" data-color="2"/><path d="M79.17 63.337c2.968-3.845 6.365-7.247 9.954-10.456 1.808-1.588 3.665-3.126 5.638-4.534 1.959-1.423 4.021-2.731 6.28-3.757a1.01 1.01 0 0 1 1.339.509c.193.431.064.926-.285 1.21l-.013.011c-1.808 1.473-3.566 3.042-5.375 4.547l-5.42 4.569c-3.66 3.01-7.328 6.042-11.285 8.778a.608.608 0 0 1-.851-.148.626.626 0 0 1 .018-.729zM101.224 147.714c5.089-3.295 10.242-6.402 15.367-9.576 2.537-1.628 5.106-3.214 7.629-4.884 2.547-1.637 5.073-3.314 7.665-4.939l.008-.005a.595.595 0 0 1 .822.192.604.604 0 0 1-.082.74c-2.159 2.198-4.429 4.29-6.827 6.22-2.382 1.953-4.882 3.757-7.447 5.461a77.625 77.625 0 0 1-7.97 4.672c-2.771 1.361-5.585 2.615-8.628 3.417a.705.705 0 0 1-.861-.506.712.712 0 0 1 .299-.776l.025-.016zM93.111 153.971c2.302-.786 4.655-1.126 7.021-1.337 2.37-.182 4.752-.256 7.181.077a.368.368 0 0 1 .08.708c-2.293.872-4.631 1.335-6.982 1.692-2.354.327-4.722.525-7.141.277a.73.73 0 1 1-.159-1.417z" class="aIptOCySncolors-0f7ee595e-4cab-409f-bb61-373d9bb45745" data-color="1"/></svg><svg width="446.678" height="37" x="264.661" y="372.998" preserveAspectRatio="none" viewBox="0.08 -28.64 353.48 29.28"><g style="fill:#f7f7f7;fill-opacity:1"><path id="id-f7ee595e-4cab-409f-bb61-373d9bb45745D6z1nYkh12" d="M34.44-28 20.4-15.24 29.52 0H19l-5.68-9.12-2.64 2.44L9.36 0H.08l5.6-28h9.28l-2 9.92L23.6-28h10.84ZM50.6 0l-.92-4.88H39L36.2 0h-9.96l17.84-28h9.28L60 0h-9.4Zm-7.72-11.68h5.48L47-18.84l-4.12 7.16ZM66.2 0l4.12-20.68h-8.2L63.6-28h25.84l-1.48 7.32h-8.2L75.64 0H66.2Zm40 0-.92-4.88H94.6L91.8 0h-9.96l17.84-28h9.28l6.64 28h-9.4Zm-7.72-11.68h5.48l-1.36-7.16-4.12 7.16ZM117.12 0l5.6-28h9.44l-4.12 20.68h12.64L139.2 0h-22.08Zm40.04.64q-4.28 0-7.5-1.58-3.22-1.58-4.96-4.42-1.74-2.84-1.74-6.52 0-4.88 2.26-8.7 2.26-3.82 6.28-5.94 4.02-2.12 9.1-2.12 4.28 0 7.5 1.58 3.22 1.58 4.96 4.42 1.74 2.84 1.74 6.52 0 4.88-2.26 8.7-2.26 3.82-6.28 5.94-4.02 2.12-9.1 2.12Zm.8-7.64q2.24 0 3.9-1.16 1.66-1.16 2.54-3.12.88-1.96.88-4.28 0-2.48-1.46-3.96T159.8-21q-2.24 0-3.9 1.16-1.66 1.16-2.54 3.12-.88 1.96-.88 4.28 0 2.48 1.46 3.96T157.96-7Zm37.36-.4 1.48-7.36h8.2l-2.4 12.08q-2.24 1.6-5.14 2.46-2.9.86-6.22.86-4.28 0-7.54-1.58t-5.04-4.42q-1.78-2.84-1.78-6.52 0-4.88 2.28-8.68t6.36-5.94q4.08-2.14 9.36-2.14 8.72 0 12.72 5.48l-6.76 5.24q-1.32-1.68-2.84-2.38-1.52-.7-3.56-.7-2.44 0-4.26 1.08-1.82 1.08-2.8 3.02-.98 1.94-.98 4.42t1.64 3.98q1.64 1.5 4.52 1.5 1.44 0 2.76-.4ZM221.84.64q-4.28 0-7.5-1.58-3.22-1.58-4.96-4.42-1.74-2.84-1.74-6.52 0-4.88 2.26-8.7 2.26-3.82 6.28-5.94 4.02-2.12 9.1-2.12 4.28 0 7.5 1.58 3.22 1.58 4.96 4.42 1.74 2.84 1.74 6.52 0 4.88-2.26 8.7-2.26 3.82-6.28 5.94-4.02 2.12-9.1 2.12Zm.8-7.64q2.24 0 3.9-1.16 1.66-1.16 2.54-3.12.88-1.96.88-4.28 0-2.48-1.46-3.96T224.48-21q-2.24 0-3.9 1.16-1.66 1.16-2.54 3.12-.88 1.96-.88 4.28 0 2.48 1.46 3.96T222.64-7ZM243.6.4q-2.2 0-3.58-1.34t-1.38-3.42q0-2.48 1.64-4.02 1.64-1.54 4.04-1.54 2.2 0 3.56 1.32 1.36 1.32 1.36 3.44 0 2.48-1.64 4.02-1.64 1.54-4 1.54Zm23.68.24q-4.28 0-7.54-1.58t-5.04-4.42q-1.78-2.84-1.78-6.52 0-4.88 2.26-8.68t6.28-5.94q4.02-2.14 9.14-2.14 4.04 0 7.16 1.46t4.64 4.14l-6.8 5.32Q273.72-21 270-21q-2.2 0-3.92 1.08-1.72 1.08-2.68 3.02-.96 1.94-.96 4.42t1.58 3.98Q265.6-7 268.2-7q3.56 0 6.24-3.24L280-4.92q-2.44 3-5.54 4.28-3.1 1.28-7.18 1.28Zm29 0q-4.28 0-7.5-1.58-3.22-1.58-4.96-4.42-1.74-2.84-1.74-6.52 0-4.88 2.26-8.7 2.26-3.82 6.28-5.94 4.02-2.12 9.1-2.12 4.28 0 7.5 1.58 3.22 1.58 4.96 4.42 1.74 2.84 1.74 6.52 0 4.88-2.26 8.7-2.26 3.82-6.28 5.94-4.02 2.12-9.1 2.12Zm.8-7.64q2.24 0 3.9-1.16 1.66-1.16 2.54-3.12.88-1.96.88-4.28 0-2.48-1.46-3.96T298.92-21q-2.24 0-3.9 1.16-1.66 1.16-2.54 3.12-.88 1.96-.88 4.28 0 2.48 1.46 3.96T297.08-7Zm48.44-21h8.04l-5.52 28h-8.6l2.48-12.76-7.88 10.24h-4.16l-4.32-10.08L323.04 0h-8.6l5.6-28h7.68l6.08 14.88L345.52-28Z"/></g></svg></svg></svg>