<svg xmlns="http://www.w3.org/2000/svg" version="1.1" preserveAspectRatio="none" viewBox="41.5 108.43 417 283.13"><svg xmlns="http://www.w3.org/2000/svg" xmlns:xlink="http://www.w3.org/1999/xlink" viewBox="264.6612 106.7151 446.6776 303.2824" width="417" height="283.13208631908117" x="41.5px" y="108.434px" preserveAspectRatio="none"><defs/><style>.abDq7-ct2F0filter-floof7ee595e-4cab-409f-bb61-373d9bb45745 {flood-color:#F7F7F7;flood-opacity:0.5;}.aIptOCySncolors-0f7ee595e-4cab-409f-bb61-373d9bb45745 {fill:#000E6D;fill-opacity:1;}.aIptOCySncolors-1f7ee595e-4cab-409f-bb61-373d9bb45745 {fill:#A5AFF3;fill-opacity:1;}.aIptOCySncolors-3f7ee595e-4cab-409f-bb61-373d9bb45745 {fill:#161616;fill-opacity:1;}.aIptOCySncolors-4f7ee595e-4cab-409f-bb61-373d9bb45745 {fill:#F7F7F7;fill-opacity:1;}.aIptOCySncolors-5f7ee595e-4cab-409f-bb61-373d9bb45745 {fill:#EDF577;fill-opacity:1;}.aIptOCySncolors-6f7ee595e-4cab-409f-bb61-373d9bb45745 {fill:#C4C4C4;fill-opacity:1;}.aIptOCySncolors-7f7ee595e-4cab-409f-bb61-373d9bb45745 {fill:#555555;fill-opacity:1;}.companyNamef7ee595e-4cab-409f-bb61-373d9bb45745 {fill:#F7F7F7;fill-opacity:1;}.icon3-strf7ee595e-4cab-409f-bb61-373d9bb45745 {stroke:#DB5192;stroke-opacity:1;}.icon3f7ee595e-4cab-409f-bb61-373d9bb45745 {fill:#DB5192;fill-opacity:1;}</style><defs>       <filter x="264.6612" y="372.9975" width="446.6776" height="37" id="f7ee595e-4cab-409f-bb61-373d9bb45745bDq7-ct2F" filterUnits="userSpaceOnUse" primitiveUnits="userSpaceOnUse" color-interpolation-filters="sRGB">         <feMerge><feMergeNode in="SourceGraphic"/></feMerge>       </filter></defs><g opacity="1" transform="rotate(0 358.2397 106.7151)"> <svg width="259.5206" height="264.2824" x="358.2397" y="106.7151" version="1.1" preserveAspectRatio="none" viewBox="45.500789642333984 44.50013732910156 108.99917602539062 110.99934387207031">   <g transform="matrix(1 0 0 1 0 0)"><g><path d="M154.485 79.915a1.6 1.6 0 0 1-.184.724c-26.991 52.158-63.475 64.473-64.998 64.978a1.629 1.629 0 0 1-.921.033c-22.051-5.34-41.808-28.623-42.612-30.746-.636-1.718 0-5.896.419-8.204 0-.034 0-.051.017-.084.05-.236.084-.438.117-.623v-.017a8.29 8.29 0 0 1 1.239-2.797C55.08 93.981 63.15 85.844 71.706 78.01c8.539-7.783 17.48-15.128 26.873-21.85l3.55-2.477.871-.64c.301-.202.552-.404 1.005-.674a5.868 5.868 0 0 1 2.696-.775c.921-.067 1.976.236 2.562.421l2.076.623 4.119 1.297c5.509 1.752 10.984 3.555 16.375 5.627 5.408 2.072 10.733 4.346 15.906 7.126.653.32 1.273.724 1.925 1.078l.954.556c.318.185.787.522 1.139.842a6.309 6.309 0 0 1 1.992 4.094c.82 2.631.769 5.815.736 6.657z" data-color="1" class="aIptOCySncolors-0f7ee595e-4cab-409f-bb61-373d9bb45745"/><path d="M149.257 71.694l-.034-.034c-.184-.135-.268-.236-.552-.404l-.904-.539c-.151-.101-.301-.185-.452-.286-.452-.27-.887-.556-1.356-.792-4.889-2.78-10.096-5.105-15.371-7.227a234.94 234.94 0 0 0-16.107-5.795l-4.102-1.247-2.043-.606c-.787-.236-1.122-.32-1.658-.303a3.113 3.113 0 0 0-1.39.421c-.167.101-.486.337-.787.539l-.871.64-3.466 2.51C91.04 65.46 82.116 72.654 73.66 80.353a286.076 286.076 0 0 0-12.29 11.961c-1.976 2.072-3.935 4.144-5.76 6.318a79.084 79.084 0 0 0-3.265 4.262c-.586.792-1.155 1.6-1.691 2.392-.034.034-.05.084-.084.118-.435.606-.67 1.331-.67 1.954 0 .202.017.404.067.59.033.185.1.354.184.505.05.084.1.152.151.236l.318.387 1.289 1.6a57.362 57.362 0 0 0 5.86 5.913c4.203 3.706 8.824 6.975 13.629 9.923 4.822 2.948 9.795 5.677 14.935 8.036 1.574.725 1.875.809 2.545.64.151-.034.285-.101.419-.168l.804-.472 1.792-1.095c2.411-1.483 4.738-3.049 7.049-4.65 4.571-3.268 9.092-6.587 13.495-10.074 4.353-3.555 8.589-7.278 12.625-11.22 8.07-7.867 15.454-16.645 21.264-26.433.72-1.213 1.44-2.443 2.143-3.673l1.005-1.87.251-.472.167-.32c.067-.202.134-.421.167-.623a2.11 2.11 0 0 0 0-.792 2.697 2.697 0 0 0-.802-1.632zm-78.61 48.62c-1.189 1.196-3.114 1.196-4.303 0s-1.189-3.117 0-4.313a3.029 3.029 0 0 1 4.303 0 3.085 3.085 0 0 1 0 4.313zm74.776-42.808c-17.48 26.753-47.2 45.992-50.532 48.098a4.131 4.131 0 0 1-2.227.657 3.94 3.94 0 0 1-1.892-.472c-12.591-6.671-25.383-17.234-30.289-21.463a4.724 4.724 0 0 1-.586-.59 4.271 4.271 0 0 1-.753-1.516c-.05-.253-.1-.522-.117-.792a3.7 3.7 0 0 1 .067-.96 4.087 4.087 0 0 1 .971-2.072c17.614-19.761 37.924-35.614 43.717-40.011a4.08 4.08 0 0 1 3.583-.69c11.553 3.302 29.201 10.31 36.333 13.697.017.017.05.017.067.034a4.026 4.026 0 0 1 1.507 1.247c.318.404.553.876.686 1.381.017.051.034.101.034.152a4.18 4.18 0 0 1-.569 3.3z" data-color="2" class="aIptOCySncolors-1f7ee595e-4cab-409f-bb61-373d9bb45745"/><path d="M88.881 74.306c.596-.2 53.161 5.896 53.161 5.896s-2.721 4.001-5.442 5.686l-51.696-7.371c0 .001.837-3.158 3.977-4.211z" data-color="2" class="aIptOCySncolors-1f7ee595e-4cab-409f-bb61-373d9bb45745"/><path d="M83.02 80.624l42.906 6.317-3.349 2.106-41.859-6.949 2.302-1.474z" data-color="2" class="aIptOCySncolors-1f7ee595e-4cab-409f-bb61-373d9bb45745"/><path d="M79.17 63.337c2.968-3.845 6.365-7.247 9.954-10.456 1.808-1.588 3.665-3.126 5.638-4.534 1.959-1.423 4.021-2.731 6.28-3.757a1.01 1.01 0 0 1 1.339.509c.193.431.064.926-.285 1.21l-.013.011c-1.808 1.473-3.566 3.042-5.375 4.547l-5.42 4.569c-3.66 3.01-7.328 6.042-11.285 8.778a.608.608 0 0 1-.851-.148.626.626 0 0 1 .018-.729z" data-color="1" class="aIptOCySncolors-0f7ee595e-4cab-409f-bb61-373d9bb45745"/><path d="M101.224 147.714c5.089-3.295 10.242-6.402 15.367-9.576 2.537-1.628 5.106-3.214 7.629-4.884 2.547-1.637 5.073-3.314 7.665-4.939l.008-.005a.595.595 0 0 1 .822.192.604.604 0 0 1-.082.74c-2.159 2.198-4.429 4.29-6.827 6.22-2.382 1.953-4.882 3.757-7.447 5.461a77.625 77.625 0 0 1-7.97 4.672c-2.771 1.361-5.585 2.615-8.628 3.417a.705.705 0 0 1-.861-.506.712.712 0 0 1 .299-.776l.025-.016z" data-color="1" class="aIptOCySncolors-0f7ee595e-4cab-409f-bb61-373d9bb45745"/><path d="M93.111 153.971c2.302-.786 4.655-1.126 7.021-1.337 2.37-.182 4.752-.256 7.181.077a.368.368 0 0 1 .08.708c-2.293.872-4.631 1.335-6.982 1.692-2.354.327-4.722.525-7.141.277a.73.73 0 1 1-.159-1.417z" data-color="1" class="aIptOCySncolors-0f7ee595e-4cab-409f-bb61-373d9bb45745"/></g></g> </svg> </g><g opacity="1" transform="rotate(0 264.6612 372.9975)"> <svg width="446.6776" height="37" x="264.6612" y="372.9975" version="1.1" preserveAspectRatio="none" viewBox="0.08 -28.64 353.48 29.28">   <g transform="matrix(1 0 0 1 0 0)" class="companyNamef7ee595e-4cab-409f-bb61-373d9bb45745"><path id="id-f7ee595e-4cab-409f-bb61-373d9bb45745D6z1nYkh12" d="M34.44-28L20.40-15.24L29.52 0L19 0L13.32-9.12L10.68-6.68L9.36 0L0.08 0L5.68-28L14.96-28L12.96-18.08L23.60-28L34.44-28Z M50.60 0L49.68-4.88L39-4.88L36.20 0L26.24 0L44.08-28L53.36-28L60 0L50.60 0ZM42.88-11.68L48.36-11.68L47-18.84L42.88-11.68Z M66.20 0L70.32-20.68L62.12-20.68L63.60-28L89.44-28L87.96-20.68L79.76-20.68L75.64 0L66.20 0Z M106.20 0L105.28-4.88L94.60-4.88L91.80 0L81.84 0L99.68-28L108.96-28L115.60 0L106.20 0ZM98.48-11.68L103.96-11.68L102.60-18.84L98.48-11.68Z M117.12 0L122.72-28L132.16-28L128.04-7.32L140.68-7.32L139.20 0L117.12 0Z M157.16 0.64Q152.88 0.64 149.66-0.94Q146.44-2.52 144.70-5.36Q142.96-8.20 142.96-11.88L142.96-11.88Q142.96-16.76 145.22-20.58Q147.48-24.40 151.50-26.52Q155.52-28.64 160.60-28.64L160.60-28.64Q164.88-28.64 168.10-27.06Q171.32-25.48 173.06-22.64Q174.80-19.80 174.80-16.12L174.80-16.12Q174.80-11.24 172.54-7.42Q170.28-3.60 166.26-1.48Q162.24 0.64 157.16 0.64L157.16 0.64ZM157.96-7Q160.20-7 161.86-8.16Q163.52-9.32 164.40-11.28Q165.28-13.24 165.28-15.56L165.28-15.56Q165.28-18.04 163.82-19.52Q162.36-21 159.80-21L159.80-21Q157.56-21 155.90-19.84Q154.24-18.68 153.36-16.72Q152.48-14.76 152.48-12.44L152.48-12.44Q152.48-9.96 153.94-8.48Q155.40-7 157.96-7L157.96-7Z M195.32-7.40L196.80-14.76L205-14.76L202.60-2.68Q200.36-1.08 197.46-0.22Q194.56 0.64 191.24 0.64L191.24 0.64Q186.96 0.64 183.70-0.94Q180.44-2.52 178.66-5.36Q176.88-8.20 176.88-11.88L176.88-11.88Q176.88-16.76 179.16-20.56Q181.44-24.36 185.52-26.50Q189.60-28.64 194.88-28.64L194.88-28.64Q203.60-28.64 207.60-23.16L207.60-23.16L200.84-17.92Q199.52-19.60 198-20.30Q196.48-21 194.44-21L194.44-21Q192-21 190.18-19.92Q188.36-18.84 187.38-16.90Q186.40-14.96 186.40-12.48L186.40-12.48Q186.40-10 188.04-8.50Q189.68-7 192.56-7L192.56-7Q194-7 195.32-7.40L195.32-7.40Z M221.84 0.64Q217.56 0.64 214.34-0.94Q211.12-2.52 209.38-5.36Q207.64-8.20 207.64-11.88L207.64-11.88Q207.64-16.76 209.90-20.58Q212.16-24.40 216.18-26.52Q220.20-28.64 225.28-28.64L225.28-28.64Q229.56-28.64 232.78-27.06Q236-25.48 237.74-22.64Q239.48-19.80 239.48-16.12L239.48-16.12Q239.48-11.24 237.22-7.42Q234.96-3.60 230.94-1.48Q226.92 0.64 221.84 0.64L221.84 0.64ZM222.64-7Q224.88-7 226.54-8.16Q228.20-9.32 229.08-11.28Q229.96-13.24 229.96-15.56L229.96-15.56Q229.96-18.04 228.50-19.52Q227.04-21 224.48-21L224.48-21Q222.24-21 220.58-19.84Q218.92-18.68 218.04-16.72Q217.16-14.76 217.16-12.44L217.16-12.44Q217.16-9.96 218.62-8.48Q220.08-7 222.64-7L222.64-7Z M243.60 0.40Q241.40 0.40 240.02-0.94Q238.64-2.28 238.64-4.36L238.64-4.36Q238.64-6.84 240.28-8.38Q241.92-9.92 244.32-9.92L244.32-9.92Q246.52-9.92 247.88-8.60Q249.24-7.28 249.24-5.16L249.24-5.16Q249.24-2.68 247.60-1.14Q245.96 0.40 243.60 0.40L243.60 0.40Z M267.28 0.64Q263 0.64 259.74-0.94Q256.48-2.52 254.70-5.36Q252.92-8.20 252.92-11.88L252.92-11.88Q252.92-16.76 255.18-20.56Q257.44-24.36 261.46-26.50Q265.48-28.64 270.60-28.64L270.60-28.64Q274.64-28.64 277.76-27.18Q280.88-25.72 282.40-23.04L282.40-23.04L275.60-17.72Q273.72-21 270-21L270-21Q267.80-21 266.08-19.92Q264.36-18.84 263.40-16.90Q262.44-14.96 262.44-12.48L262.44-12.48Q262.44-10 264.02-8.50Q265.60-7 268.20-7L268.20-7Q271.76-7 274.44-10.24L274.44-10.24L280-4.92Q277.56-1.92 274.46-0.64Q271.36 0.64 267.28 0.64L267.28 0.64Z M296.28 0.64Q292 0.64 288.78-0.94Q285.56-2.52 283.82-5.36Q282.08-8.20 282.08-11.88L282.08-11.88Q282.08-16.76 284.34-20.58Q286.60-24.40 290.62-26.52Q294.64-28.64 299.72-28.64L299.72-28.64Q304-28.64 307.22-27.06Q310.44-25.48 312.18-22.64Q313.92-19.80 313.92-16.12L313.92-16.12Q313.92-11.24 311.66-7.42Q309.40-3.60 305.38-1.48Q301.36 0.64 296.28 0.64L296.28 0.64ZM297.08-7Q299.32-7 300.98-8.16Q302.64-9.32 303.52-11.28Q304.40-13.24 304.40-15.56L304.40-15.56Q304.40-18.04 302.94-19.52Q301.48-21 298.92-21L298.92-21Q296.68-21 295.02-19.84Q293.36-18.68 292.48-16.72Q291.60-14.76 291.60-12.44L291.60-12.44Q291.60-9.96 293.06-8.48Q294.52-7 297.08-7L297.08-7Z M345.52-28L353.56-28L348.04 0L339.44 0L341.92-12.76L334.04-2.52L329.88-2.52L325.56-12.60L323.04 0L314.44 0L320.04-28L327.72-28L333.80-13.12L345.52-28Z"/></g> </svg> </g></svg></svg>